<svg xmlns="http://www.w3.org/2000/svg" viewBox="0 0 32 32" width="64" height="64" shape-rendering="crispEdges">
    <rect width="32" height="32" fill="#140a05" rx="3" />
    <rect x="1" y="1" width="30" height="30" fill="none" stroke="#3d2212" stroke-width="1" />
    <rect x="2" y="2" width="28" height="28" fill="#1e1008" />
    <rect x="12" y="7" width="3" height="3" fill="#d97706" /><rect x="17" y="7" width="3" height="3" fill="#d97706" /><rect x="13" y="10" width="6" height="2" fill="#78350f" /><rect x="14" y="10" width="4" height="1" fill="#ca8a04" /><rect x="9" y="12" width="14" height="1" fill="#b45309" /><rect x="10" y="12" width="12" height="1" fill="#d97706" /><rect x="11" y="12" width="3" height="1" fill="#fde68a" /><rect x="9" y="13" width="14" height="1" fill="#b45309" /><rect x="10" y="13" width="12" height="1" fill="#d97706" /><rect x="11" y="13" width="3" height="1" fill="#fde68a" /><rect x="9" y="14" width="14" height="1" fill="#b45309" /><rect x="10" y="14" width="12" height="1" fill="#d97706" /><rect x="11" y="14" width="3" height="1" fill="#fde68a" /><rect x="9" y="15" width="14" height="1" fill="#b45309" /><rect x="10" y="15" width="12" height="1" fill="#d97706" /><rect x="11" y="15" width="3" height="1" fill="#fde68a" /><rect x="9" y="16" width="14" height="1" fill="#b45309" /><rect x="10" y="16" width="12" height="1" fill="#d97706" /><rect x="11" y="16" width="3" height="1" fill="#fde68a" /><rect x="9" y="17" width="14" height="1" fill="#b45309" /><rect x="10" y="17" width="12" height="1" fill="#d97706" /><rect x="11" y="17" width="3" height="1" fill="#fde68a" /><rect x="8" y="18" width="16" height="1" fill="#b45309" /><rect x="9" y="18" width="14" height="1" fill="#d97706" /><rect x="10" y="18" width="3" height="1" fill="#fde68a" /><rect x="8" y="19" width="16" height="1" fill="#b45309" /><rect x="9" y="19" width="14" height="1" fill="#d97706" /><rect x="10" y="19" width="3" height="1" fill="#fde68a" /><rect x="8" y="20" width="16" height="1" fill="#b45309" /><rect x="9" y="20" width="14" height="1" fill="#d97706" /><rect x="10" y="20" width="3" height="1" fill="#fde68a" /><rect x="8" y="21" width="16" height="1" fill="#b45309" /><rect x="9" y="21" width="14" height="1" fill="#d97706" /><rect x="10" y="21" width="3" height="1" fill="#fde68a" /><rect x="8" y="22" width="16" height="1" fill="#b45309" /><rect x="9" y="22" width="14" height="1" fill="#d97706" /><rect x="10" y="22" width="3" height="1" fill="#fde68a" /><rect x="8" y="23" width="16" height="1" fill="#b45309" /><rect x="9" y="23" width="14" height="1" fill="#d97706" /><rect x="10" y="23" width="3" height="1" fill="#fde68a" /><rect x="8" y="24" width="16" height="1" fill="#b45309" /><rect x="9" y="24" width="14" height="1" fill="#d97706" /><rect x="10" y="24" width="3" height="1" fill="#fde68a" /><rect x="8" y="25" width="16" height="1" fill="#b45309" /><rect x="9" y="25" width="14" height="1" fill="#d97706" /><rect x="10" y="25" width="3" height="1" fill="#fde68a" /><rect x="8" y="26" width="16" height="1" fill="#b45309" /><rect x="9" y="26" width="14" height="1" fill="#d97706" /><rect x="10" y="26" width="3" height="1" fill="#fde68a" /><rect x="12" y="15" width="8" height="7" fill="#f8fafc" /><rect x="13" y="16" width="6" height="5" fill="#ffffff" /><rect x="14" y="17" width="4" height="3" fill="#e2e8f0" /><rect x="15" y="17" width="2" height="3" fill="#ca8a04" />
  </svg>