<svg xmlns="http://www.w3.org/2000/svg" viewBox="0 0 64 64" width="64" height="64" shape-rendering="crispEdges">
    
    <circle cx="32" cy="32" r="28" fill="#451a03" /><circle cx="32" cy="32" r="26" fill="#ca8a04" /><circle cx="32" cy="32" r="24" fill="#fde047" /><circle cx="32" cy="32" r="22" fill="#1e1008" /><polygon points="32,10 35,32 32,32" fill="#dc2626" /><polygon points="32,10 29,32 32,32" fill="#ef4444" /><polygon points="32,54 35,32 32,32" fill="#94a3b8" /><polygon points="32,54 29,32 32,32" fill="#cbd5e1" /><polygon points="54,32 32,29 32,32" fill="#d97706" /><polygon points="54,32 32,35 32,32" fill="#f59e0b" /><polygon points="10,32 32,29 32,32" fill="#d97706" /><polygon points="10,32 32,35 32,32" fill="#f59e0b" /><circle cx="32" cy="32" r="5" fill="#ca8a04" /><circle cx="32" cy="32" r="3" fill="#fde047" /><circle cx="32" cy="32" r="1.5" fill="#ffffff" />
  </svg>