<svg xmlns="http://www.w3.org/2000/svg" viewBox="0 0 128 128" width="128" height="128" shape-rendering="crispEdges">
    
    <rect width="128" height="128" fill="#140803" /><rect x="2" y="2" width="124" height="40" fill="#3b2011" /><rect x="2" y="40" width="124" height="2" fill="#1b0e06" /><rect x="2" y="42" width="124" height="42" fill="#422514" /><rect x="2" y="82" width="124" height="2" fill="#1b0e06" /><rect x="2" y="84" width="124" height="42" fill="#381d0f" /><rect x="8" y="10" width="60" height="1" fill="#5c341c" opacity="0.4" /><rect x="80" y="16" width="40" height="1" fill="#5c341c" opacity="0.4" /><rect x="8" y="28" width="60" height="1" fill="#5c341c" opacity="0.4" /><rect x="80" y="34" width="40" height="1" fill="#5c341c" opacity="0.4" /><rect x="8" y="46" width="60" height="1" fill="#5c341c" opacity="0.4" /><rect x="80" y="52" width="40" height="1" fill="#5c341c" opacity="0.4" /><rect x="8" y="64" width="60" height="1" fill="#5c341c" opacity="0.4" /><rect x="80" y="70" width="40" height="1" fill="#5c341c" opacity="0.4" /><rect x="8" y="82" width="60" height="1" fill="#5c341c" opacity="0.4" /><rect x="80" y="88" width="40" height="1" fill="#5c341c" opacity="0.4" /><rect x="8" y="100" width="60" height="1" fill="#5c341c" opacity="0.4" /><rect x="80" y="106" width="40" height="1" fill="#5c341c" opacity="0.4" /><rect x="0" y="0" width="128" height="128" fill="none" stroke="#24140a" stroke-width="4" /><rect x="4" y="4" width="120" height="120" fill="none" stroke="#5c371e" stroke-width="1" /><rect x="5" y="5" width="4" height="4" fill="#78350f" /><rect x="6" y="6" width="2" height="2" fill="#ca8a04" /><rect x="119" y="5" width="4" height="4" fill="#78350f" /><rect x="120" y="6" width="2" height="2" fill="#ca8a04" /><rect x="5" y="119" width="4" height="4" fill="#78350f" /><rect x="6" y="120" width="2" height="2" fill="#ca8a04" /><rect x="119" y="119" width="4" height="4" fill="#78350f" /><rect x="120" y="120" width="2" height="2" fill="#ca8a04" />
  </svg>